<svg width="30" height="30" viewBox="0 0 30 30" fill="none" xmlns="http://www.w3.org/2000/svg">
<g clip-path="url(#clip0_745_2141)">
<path fill-rule="evenodd" clip-rule="evenodd" d="M4.77271 7.09674C4.77271 5.44116 6.1108 4.09082 7.76098 4.09082C9.41117 4.09082 10.7491 5.44119 10.7491 7.09674C10.7491 8.75163 9.41098 10.1011 7.76098 10.1011C6.111 10.1011 4.77271 8.75172 4.77271 7.09674ZM6.50812 7.09674C6.50812 7.79933 7.07376 8.36566 7.76098 8.36566C8.44816 8.36566 9.0137 7.79937 9.0137 7.09674C9.0137 6.39287 8.44785 5.82624 7.76098 5.82624C7.07406 5.82624 6.50812 6.39291 6.50812 7.09674ZM5.11361 7.09674C5.11361 5.6273 6.30122 4.43173 7.76098 4.43173C8.95195 4.43173 9.96168 5.22756 10.2931 6.31866C9.96165 5.22761 8.95195 4.43182 7.761 4.43182C6.30124 4.43182 5.11364 5.62739 5.11364 7.09683C5.11364 7.32198 5.14155 7.54071 5.19408 7.74967C5.14154 7.54068 5.11361 7.32193 5.11361 7.09674ZM9.35463 7.09683C9.35463 6.97381 9.34093 6.85397 9.31498 6.73878C9.34091 6.85394 9.35461 6.97375 9.35461 7.09674C9.35461 7.98439 8.63968 8.70657 7.76098 8.70657C7.01787 8.70657 6.3918 8.19008 6.21627 7.49381C6.39177 8.19013 7.01786 8.70666 7.761 8.70666C8.6397 8.70666 9.35463 7.98448 9.35463 7.09683ZM24.5593 15.6814C24.5594 14.0053 24.0788 12.5843 23.1259 11.6102C22.2203 10.6851 20.9489 10.2113 19.477 10.2113C18.3121 10.2113 17.4083 10.5679 16.7405 11.0044C16.5912 10.7421 16.3091 10.5652 15.9858 10.5652H12.5465C12.0673 10.5652 11.6788 10.9537 11.6788 11.4329V23.0179C11.6788 23.4971 12.0673 23.8856 12.5465 23.8856H15.9858C16.465 23.8856 16.8535 23.4971 16.8535 23.0179V16.9362C16.8535 16.2862 16.9868 15.858 17.1953 15.5974C17.3925 15.3509 17.6973 15.2048 18.1708 15.2048C18.3659 15.2048 18.6058 15.2115 18.8102 15.3837C19.0082 15.5504 19.2554 15.9481 19.2554 16.9362V23.0179C19.2554 23.4971 19.6439 23.8856 20.1231 23.8856H23.6916C24.1708 23.8856 24.5593 23.4971 24.5593 23.0179V15.6814ZM12.108 11.141C12.0523 11.2245 12.0198 11.3249 12.0198 11.4328V23.0178C12.0198 23.3087 12.2557 23.5446 12.5466 23.5446H15.9859C16.1676 23.5446 16.3279 23.4525 16.4226 23.3124C16.3279 23.4526 16.1676 23.5447 15.9858 23.5447H12.5465C12.2556 23.5447 12.0197 23.3088 12.0197 23.0179V11.4329C12.0197 11.325 12.0522 11.2246 12.108 11.141ZM16.9189 15.3973C17.1959 15.0425 17.6139 14.8639 18.1708 14.8639C18.5608 14.8639 19.5963 14.8639 19.5963 16.9362V23.0179C19.5963 23.3088 19.8322 23.5447 20.1231 23.5447H23.6916C23.8734 23.5447 24.0337 23.4526 24.1284 23.3124C24.0337 23.4525 23.8735 23.5446 23.6917 23.5446H20.1232C19.8323 23.5446 19.5964 23.3087 19.5964 23.0178V16.9361C19.5964 14.8637 18.5609 14.8637 18.1709 14.8637C17.6139 14.8637 17.1959 15.0424 16.9189 15.3973ZM15.1181 12.9933C15.1181 13.3907 15.3882 13.7336 15.7695 13.8322C16.1534 13.9311 16.5553 13.7558 16.7466 13.4108C16.7675 13.3729 17.5746 11.9468 19.4771 11.9468C20.5743 11.9468 21.396 12.2921 21.9471 12.9011C22.5026 13.515 22.824 14.4421 22.824 15.6815V22.1503H20.9909V16.9363C20.9909 15.5112 20.5819 14.6222 19.9823 14.0969C19.3913 13.5793 18.6762 13.4694 18.1709 13.4694C17.2389 13.4694 16.4608 13.7932 15.9207 14.4159C15.386 15.0322 15.1181 15.9021 15.1181 16.9363V22.1503H13.4143V12.3007H15.1181V12.9933ZM23.1649 22.491L23.1649 15.6815C23.1649 13.0914 21.8207 11.6059 19.4771 11.6059C17.8814 11.6059 16.9815 12.5171 16.6263 12.9821C16.9815 12.5172 17.8814 11.6057 19.4772 11.6057C21.8208 11.6057 23.165 13.0912 23.165 15.6814V22.491H23.1649H23.1649ZM16.4264 13.2818C16.3031 13.4678 16.0739 13.5584 15.8549 13.502C15.6224 13.4419 15.4591 13.2334 15.4591 12.9932V11.9597H13.0735V11.9598H15.459V12.9933C15.459 13.2335 15.6223 13.442 15.8548 13.5021C16.0738 13.5586 16.3032 13.4679 16.4264 13.2818ZM15.8656 15.0939C15.6003 15.585 15.4591 16.2056 15.4591 16.9361V22.491H15.459V16.9363C15.459 16.2057 15.6003 15.585 15.8656 15.0939ZM9.57146 10.5651H5.98534C5.50613 10.5651 5.11763 10.9536 5.11763 11.4328V23.0177C5.11763 23.4969 5.50613 23.8855 5.98534 23.8855H9.57146C10.0507 23.8855 10.4392 23.4969 10.4392 23.0177V11.4328C10.4392 10.9536 10.0507 10.5651 9.57146 10.5651ZM8.70375 22.15H6.85305V12.3005H8.70375V22.15ZM9.57146 10.906H5.98534C5.75235 10.906 5.55466 11.0573 5.48517 11.267C5.5547 11.0573 5.75235 10.9061 5.98529 10.9061H9.57141C9.86234 10.9061 10.0982 11.142 10.0982 11.4329V23.0179C10.0982 23.0509 10.0952 23.0832 10.0894 23.1145C10.0952 23.0831 10.0983 23.0508 10.0983 23.0177V11.4328C10.0983 11.1419 9.86238 10.906 9.57146 10.906ZM6.51214 11.9597H6.51209V22.4911H9.04461V22.4909H6.51214V11.9597Z" fill="#303030"/>
</g>
<defs>
<clipPath id="clip0_745_2141">
<rect width="30" height="30" fill="white"/>
</clipPath>
</defs>
</svg>
