<svg width="75" height="51" viewBox="0 0 75 51" fill="none" xmlns="http://www.w3.org/2000/svg">
<g clip-path="url(#clip0_202_342)">
<path d="M0 6.21215C0.181802 5.64857 0.361785 5.08316 0.519953 4.59412C7.55749 11.6371 14.5841 18.6692 21.5762 25.6667C14.7805 32.4461 7.85565 39.3546 0.86174 46.3303C0.589037 45.5795 0.294519 44.7668 0 43.9542C0 31.3735 0 18.7928 0 6.21215Z" fill="#8E8E8E"/>
<path d="M3.94324 0.898105C5.10859 0.230893 6.31393 0.00727711 7.55564 0.00545909C27.2938 5.04442e-06 47.032 -0.00363099 66.7702 0.00727711C68.1356 0.00727711 69.4554 0.278161 70.6717 1.06354C70.4917 1.25262 70.3317 1.42897 70.1627 1.59804C59.9163 11.8407 49.6682 22.0853 39.42 32.3261C38.0692 33.6751 36.7148 33.6915 35.3858 32.3625C25.0359 22.018 14.6877 11.6699 4.34138 1.3217C4.22321 1.20353 4.11231 1.07627 3.94506 0.898105H3.94324Z" fill="#8E8E8E"/>
<path d="M49.2373 29.3737C55.9985 36.144 62.7288 42.8852 69.6227 49.7882C68.4738 49.9209 67.4193 50.1482 66.3649 50.15C47.9556 50.1718 29.5446 50.1682 11.1335 50.1609C9.5646 50.1609 7.99202 50.1154 6.42489 50.0355C5.86312 50.0064 5.30863 49.8173 4.81958 49.7173C11.6626 42.8579 18.4801 36.024 25.4595 29.0265C25.5413 29.1592 25.645 29.4228 25.8286 29.6082C27.8884 31.688 29.9536 33.7624 32.028 35.8277C35.1514 38.9346 39.64 38.9292 42.7634 35.8167C44.8886 33.6988 47.003 31.5717 49.1228 29.4501C49.1555 29.4173 49.2028 29.3955 49.2355 29.3737H49.2373Z" fill="#8E8E8E"/>
<path d="M73.3333 46.4267C66.4393 39.5455 59.6109 32.7298 52.8424 25.974C59.8509 18.9637 66.8648 11.9462 73.9478 4.86139C74.0677 5.62859 74.3004 6.42307 74.3023 7.21754C74.3241 19.1892 74.3204 31.1608 74.3132 43.1324C74.3132 44.3105 73.9496 45.3941 73.3351 46.4267H73.3333Z" fill="#8E8E8E"/>
</g>
<defs>
<clipPath id="clip0_202_342">
<rect width="74.3187" height="50.1663" fill="white"/>
</clipPath>
</defs>
</svg>
