<svg width="87" height="68" viewBox="0 0 87 68" fill="none" xmlns="http://www.w3.org/2000/svg">
<g clip-path="url(#clip0_327_29)">
<path d="M53.8841 44.8457C53.9023 45.8165 53.151 46.6201 52.2136 46.6338C51.3034 46.6476 50.4772 45.8188 50.4727 44.8892C50.4704 43.9665 51.2013 43.2064 52.125 43.172C53.0942 43.1354 53.8682 43.8726 53.8841 44.8457Z" fill="#8D8D8E"/>
<path d="M33.1045 44.9075C33.0954 43.923 33.8376 43.1651 34.8022 43.1697C35.7555 43.1743 36.5318 43.9642 36.5159 44.9144C36.5 45.8096 35.7238 46.6041 34.8363 46.6315C33.9079 46.6613 33.1135 45.8714 33.1067 44.9075H33.1045Z" fill="#8D8D8E"/>
<path d="M41.7977 44.8548C41.8113 43.8841 42.5853 43.1377 43.5477 43.1674C44.4805 43.1972 45.1887 43.9321 45.191 44.8754C45.1932 45.8279 44.4056 46.6361 43.4818 46.6292C42.5535 46.6224 41.784 45.8096 41.7977 44.8525V44.8548Z" fill="#8D8D8E"/>
<path d="M32.621 59.2768C32.3577 52.7836 29.2572 48.0739 23.6555 44.9716C23.4194 44.8411 23.1788 44.722 22.9019 44.5778C29.1029 39.8361 29.0666 31.7814 24.6224 27.0695C20.1805 22.3599 12.6312 22.3187 8.12802 26.955C3.59984 31.6166 3.49317 39.843 9.73274 44.5801C9.43767 44.7381 9.17438 44.8823 8.90655 45.0243C4.91631 47.1421 2.18351 50.3544 0.76945 54.6725C0.435794 55.689 0.251944 56.756 0 57.8V66.1981C0.47892 66.814 1.00097 67.2651 1.87936 67.2628C11.5032 67.2399 21.1292 67.2513 30.7553 67.2445C32.0309 67.2445 32.6324 66.64 32.6437 65.3579C32.6596 63.3316 32.7073 61.3008 32.6233 59.2768H32.621Z" fill="#8D8D8E"/>
<path d="M86.9818 59.4966C86.8842 54.3039 84.7983 50.0682 80.8035 46.8193C79.7367 45.9515 78.511 45.283 77.3716 44.532C83.904 39.5591 83.0687 30.9755 78.6404 26.7284C74.051 22.3278 66.7469 22.456 62.3821 27.042C58.0537 31.5868 57.7314 39.7239 64.0572 44.5915C63.7417 44.761 63.4489 44.9167 63.1561 45.0792C58.3306 47.7374 55.2823 51.7533 54.5719 57.2734C54.2132 60.0553 54.3835 62.9103 54.3767 65.7334C54.3767 66.679 55.1098 67.2445 56.1789 67.2445C65.8299 67.2514 75.4832 67.2514 85.1342 67.2445C86.3826 67.2445 86.9795 66.6011 86.9841 65.3235C86.9909 63.382 87.0158 61.4404 86.9795 59.4989L86.9818 59.4966Z" fill="#8D8D8E"/>
<path d="M59.8037 5.53159C59.7923 2.9192 58.1581 0.773875 55.616 0.212932C54.447 -0.0457887 53.2009 0.0137399 51.9889 0.0137399C45.3634 0.00458168 38.738 -0.0228931 32.1126 0.0457938C29.1823 0.0755582 26.8762 2.40633 26.8444 5.34155C26.7832 11.0815 26.7877 16.8237 26.8444 22.5637C26.8717 25.2928 28.9394 27.4885 31.62 27.8205C32.3736 27.9144 33.1362 27.9212 34.0078 27.9739C34.0078 29.5628 34.0124 31.0717 34.0078 32.5805C34.0033 33.4459 34.2552 34.1649 35.1018 34.5266C35.9598 34.893 36.618 34.5312 37.2218 33.9153C38.9536 32.1478 40.724 30.4191 42.4309 28.6287C42.9507 28.0838 43.4818 27.8938 44.2127 27.9029C47.497 27.9373 50.7814 27.9418 54.0657 27.9098C57.4862 27.8754 59.8059 25.5126 59.8127 22.0714C59.8264 16.5581 59.8286 11.0471 59.8059 5.53388L59.8037 5.53159Z" fill="#8D8D8E"/>
</g>
<defs>
<clipPath id="clip0_327_29">
<rect width="87" height="67.2605" fill="white"/>
</clipPath>
</defs>
</svg>
