<svg width="96" height="96" viewBox="0 0 96 96" fill="none" xmlns="http://www.w3.org/2000/svg">
<path d="M76.4115 67.2C73.1784 67.1973 69.9452 67.2 66.7121 67.2H65.6005V65.9763C65.6005 59.5451 65.6005 53.1113 65.6005 46.6801C65.6005 45.3575 65.0448 44.8098 63.7221 44.8018C62.7682 44.7938 61.817 44.8018 60.8043 44.8018C60.8043 43.1078 60.9031 41.5368 60.7615 39.9898C60.6921 39.2203 60.3661 38.3092 59.8317 37.7962C59.2705 37.2564 58.3353 36.8824 57.5471 36.8477C54.9312 36.7328 52.3046 36.8049 49.5765 36.8049V32.0864H46.3968V36.8049C43.6954 36.8049 41.1009 36.7969 38.509 36.8049C36.5317 36.8129 35.2171 38.1435 35.2064 40.134C35.1984 41.657 35.2064 43.1826 35.2064 44.8018C34.2205 44.8018 33.3307 44.8018 32.4382 44.8018C30.9098 44.8071 30.4075 45.3041 30.4075 46.8297C30.4075 53.2609 30.4075 59.6947 30.4075 66.1259V67.2027C26.68 67.2027 23.1129 67.2 19.5485 67.2027C18.1483 67.2027 17.6086 67.7344 17.6086 69.1211C17.6059 76.3859 17.6059 83.6506 17.6086 90.9154C17.6086 92.2407 18.1617 92.7938 19.487 92.7964C22.7522 92.8044 26.0201 92.7964 29.2853 92.7964H30.3754C30.3915 93.1171 30.4048 93.3121 30.4075 93.5071C30.4369 95.6847 30.7468 95.9946 32.8818 95.9946C43.014 95.9946 53.1463 95.9946 63.2759 95.9946C63.5431 95.9946 63.8103 96.008 64.0748 95.9893C64.9726 95.9252 65.5471 95.3587 65.5979 94.461C65.6273 93.94 65.6032 93.4136 65.6032 92.7938H66.6747C69.9399 92.7938 73.2078 92.7964 76.473 92.7938C77.8677 92.7938 78.4048 92.2567 78.4048 90.8647C78.4075 83.6319 78.4075 76.4019 78.4048 69.1692C78.4048 67.7183 77.8784 67.2 76.4168 67.1973L76.4115 67.2ZM27.1476 83.1189H24.0668V80.057H27.1476V83.1189ZM24.0481 76.7385V73.6365H27.1343V76.7385H24.0481ZM38.4476 55.9274V52.8494H57.5177V55.9274H38.4476ZM38.4476 68.8699H57.5551V71.9426H38.4476V68.8699ZM38.4796 79.9474V76.8668H57.5498V79.9474H38.4796ZM57.5578 63.9323H38.4609V60.881H57.5578V63.9323ZM71.9412 83.1457H68.8791V80.0356H71.9412V83.1457ZM68.847 76.7252V73.6552H71.9198V76.7252H68.847Z" fill="#8D8D8E"/>
<path d="M48.0375 8.37443e-07C40.0321 -0.00267102 33.6059 6.38842 33.6033 14.3613C33.6006 22.3154 39.992 28.784 47.8665 28.7973C55.9546 28.8107 62.3995 22.4436 62.4022 14.4334C62.4049 6.4285 56.0081 0.0026727 48.0375 8.37443e-07ZM57.0956 20.7817C56.4837 19.9641 55.9787 19.1359 55.3214 18.4545C54.6828 17.7919 53.8918 17.2789 53.1196 16.6591C54.1938 15.1575 54.6747 13.4421 54.2953 11.5505C53.9827 9.99276 53.1971 8.70493 51.9333 7.7297C49.4456 5.81397 45.9854 5.95291 43.6768 8.05299C41.2292 10.2787 40.9246 13.5998 42.9446 16.7499C41.2185 17.6744 39.8584 18.9836 39.0408 20.8272C36.0909 17.3778 35.8932 11.0027 39.8237 6.79989C43.8584 2.48483 50.5732 2.00924 55.0889 5.76588C59.6286 9.54389 60.5318 16.1995 57.0983 20.7791L57.0956 20.7817Z" fill="#8D8D8E"/>
<path d="M14.346 12.8009C6.38076 12.8036 -0.00534067 19.2347 3.35153e-06 27.2476C0.00534737 35.2098 6.44222 41.6009 14.4502 41.5955C22.3701 41.5902 28.7936 35.1644 28.7989 27.245C28.8043 19.192 22.4048 12.7955 14.3487 12.7982L14.346 12.8009ZM23.4896 33.5746C22.8671 32.7463 22.3594 31.9154 21.6994 31.2341C21.0608 30.5741 20.2645 30.0638 19.5351 29.484C21.5017 26.0774 21.1142 22.7803 18.4716 20.6321C16.0214 18.6389 12.4863 18.711 10.1296 20.8085C7.94656 22.7482 7.02739 26.3232 9.34937 29.5588C7.59386 30.4699 6.26052 31.8112 5.41884 33.6521C2.34068 29.8474 2.35404 23.4296 6.51971 19.2962C10.68 15.1655 17.3173 14.9197 21.6593 18.7217C26.0761 22.5879 26.8938 29.1954 23.495 33.5746H23.4896Z" fill="#8D8D8E"/>
<path d="M81.5898 12.8009C73.6486 12.8009 67.2091 19.2054 67.2011 27.1087C67.193 35.1804 73.5791 41.5982 81.6112 41.5982C89.5925 41.5982 96.0027 35.1777 96 27.1862C96 19.2027 89.5845 12.7982 81.5898 12.8009ZM90.7842 33.3983C89.515 32.073 88.2244 30.7264 86.843 29.2836C87.8076 27.9423 88.2859 26.2003 87.8771 24.2792C87.5538 22.7563 86.7815 21.5032 85.5524 20.5466C83.1022 18.6416 79.698 18.7405 77.3707 20.7711C74.8377 22.9807 74.5224 26.1094 76.3634 29.3103C75.0167 30.6944 73.7154 32.0303 72.4275 33.3529C69.7475 30.3631 69.4081 23.841 73.4723 19.5447C77.6272 15.1521 84.5638 14.8475 89.0474 18.8821C93.6085 22.986 93.7742 29.7004 90.7842 33.3983Z" fill="#8D8D8E"/>
</svg>
