<svg width="30" height="30" viewBox="0 0 30 30" fill="none" xmlns="http://www.w3.org/2000/svg">
<g clip-path="url(#clip0_745_2111)">
<path fill-rule="evenodd" clip-rule="evenodd" d="M14.3181 7.15922C10.3642 7.15922 7.15898 10.3645 7.15898 14.3183C7.15898 18.2722 10.3642 21.4774 14.3181 21.4774C18.2719 21.4774 21.4772 18.2722 21.4772 14.3183C21.4772 10.3645 18.2719 7.15922 14.3181 7.15922ZM5.11353 14.3183C5.11353 9.23478 9.23454 5.11377 14.3181 5.11377C19.4016 5.11377 23.5226 9.23478 23.5226 14.3183C23.5226 19.4018 19.4016 23.5229 14.3181 23.5229C9.23454 23.5229 5.11353 19.4018 5.11353 14.3183Z" fill="#303030"/>
<path fill-rule="evenodd" clip-rule="evenodd" d="M21.7768 21.7766C22.1762 21.3772 22.8238 21.3772 23.2232 21.7766L24.5868 23.1402C24.9862 23.5396 24.9862 24.1872 24.5868 24.5866C24.1874 24.986 23.5399 24.986 23.1405 24.5866L21.7768 23.223C21.3774 22.8236 21.3774 22.176 21.7768 21.7766Z" fill="#303030"/>
</g>
<defs>
<clipPath id="clip0_745_2111">
<rect width="30" height="30" fill="white"/>
</clipPath>
</defs>
</svg>
