<svg width="30" height="30" viewBox="0 0 30 30" fill="none" xmlns="http://www.w3.org/2000/svg">
<g clip-path="url(#clip0_745_2129)">
<path fill-rule="evenodd" clip-rule="evenodd" d="M17.7775 8.6884C17.3314 8.68822 16.8909 8.78288 16.4876 8.96553C16.0844 9.14819 15.7286 9.41429 15.4458 9.74463C15.163 10.075 14.9604 10.4613 14.8525 10.8757C14.7446 11.2902 14.7341 11.7224 14.8218 12.1412C14.8521 12.2863 14.8459 12.4362 14.8038 12.5785C14.7617 12.7209 14.685 12.8517 14.5798 12.9601C14.4747 13.0685 14.3442 13.1515 14.199 13.2022C14.0539 13.253 13.8982 13.27 13.7448 13.2519C11.6452 13.0049 9.666 12.1785 8.04832 10.8734C8.07859 11.4362 8.28266 12.0346 8.72498 12.661L9.38798 13.5997L8.29926 14.0438L8.08933 14.1298C8.24556 14.3009 8.43303 14.4757 8.64296 14.6487C8.92361 14.8787 9.2205 15.0899 9.53152 15.2807L9.54226 15.2873H9.54324L11.0548 16.1652L9.47293 16.9225C9.39482 16.9599 9.3167 16.9935 9.23859 17.0235C9.57872 17.2941 9.95342 17.5222 10.3537 17.7022L11.7109 18.3165L10.5744 19.2552C9.95432 19.7675 9.33037 20.1499 8.52091 20.3519C9.76238 20.9851 11.148 21.3149 12.5546 21.3121C17.2473 21.3121 21.0261 17.7265 21.0261 13.3332V12.8471L21.4411 12.5675C22.0894 12.1318 22.5474 11.5428 22.8755 10.8687H20.7664L20.5008 10.3358C20.2562 9.84275 19.8706 9.42626 19.3888 9.13466C18.9069 8.84306 18.3485 8.68832 17.7785 8.6884H17.7775ZM6.76333 15.5135C6.67119 15.6146 6.60283 15.7334 6.5629 15.862C6.52297 15.9906 6.5124 16.1258 6.53191 16.2587C6.64225 17.0076 7.10996 17.6527 7.62747 18.1454C7.76808 18.2791 7.91845 18.4072 8.07663 18.5297L8.0034 18.5484C7.53374 18.6606 6.90003 18.6839 5.8445 18.5858C5.64517 18.567 5.44465 18.6075 5.27012 18.7015C5.09559 18.7956 4.9555 18.9388 4.86884 19.1117C4.78218 19.2846 4.75314 19.4788 4.78567 19.6681C4.81819 19.8573 4.9107 20.0324 5.05066 20.1696C6.02785 21.1259 7.1952 21.8852 8.48383 22.4026C9.77246 22.92 11.1563 23.185 12.5536 23.182C18.132 23.182 22.7075 19.0345 22.9663 13.8007C24.2259 12.7881 24.8557 11.4166 25.1955 10.1703C25.2333 10.032 25.2374 9.88719 25.2076 9.74709C25.1778 9.60699 25.1148 9.47531 25.0235 9.36216C24.9322 9.24902 24.8151 9.15743 24.681 9.09444C24.547 9.03144 24.3996 8.99873 24.2503 8.9988H21.9527C21.3908 8.16326 20.5695 7.51732 19.6043 7.15175C18.6392 6.78618 17.5786 6.71935 16.5718 6.96066C15.5649 7.20196 14.6623 7.73927 13.9908 8.49709C13.3193 9.2549 12.9126 10.1951 12.828 11.1856C11.0281 10.737 9.4176 9.76528 8.21822 8.40418C8.112 8.28392 7.97578 8.19131 7.82219 8.13494C7.66861 8.07856 7.50264 8.06025 7.33969 8.0817C7.17674 8.10315 7.02209 8.16367 6.89009 8.25764C6.7581 8.35161 6.65303 8.47598 6.58464 8.61921C5.99292 9.85522 5.87965 11.2801 6.53972 12.7292L6.31124 12.8227C6.09259 12.912 5.91543 13.0745 5.81297 13.2798C5.71051 13.4851 5.68978 13.7192 5.75467 13.9381C5.93629 14.5477 6.34444 15.0863 6.76235 15.5135H6.76333Z" fill="#303030"/>
</g>
<defs>
<clipPath id="clip0_745_2129">
<rect width="30" height="30" fill="white"/>
</clipPath>
</defs>
</svg>
