<svg width="30" height="30" viewBox="0 0 30 30" fill="none" xmlns="http://www.w3.org/2000/svg">
<g clip-path="url(#clip0_745_2135)">
<path fill-rule="evenodd" clip-rule="evenodd" d="M6.86743 8.9352C6.21461 9.61054 5.79545 10.6199 5.79545 11.9318V18.0681C5.79545 19.38 6.21461 20.3894 6.86743 21.0647C7.51724 21.7369 8.47601 22.159 9.71591 22.159H19.6023C20.8422 22.159 21.8009 21.7369 22.4508 21.0647C23.1036 20.3894 23.5227 19.38 23.5227 18.0681V11.9318C23.5227 10.6199 23.1036 9.61054 22.4508 8.9352C21.8009 8.26298 20.8422 7.84086 19.6023 7.84086H9.71591C8.47601 7.84086 7.51724 8.26298 6.86743 8.9352ZM5.39677 7.51357C6.47707 6.39602 7.9899 5.79541 9.71591 5.79541H19.6023C21.3283 5.79541 22.8411 6.39602 23.9214 7.51357C24.9987 8.62801 25.5682 10.1755 25.5682 11.9318V18.0681C25.5682 19.8244 24.9987 21.3719 23.9214 22.4863C22.8411 23.6039 21.3283 24.2045 19.6023 24.2045H9.71591C7.9899 24.2045 6.47707 23.6039 5.39677 22.4863C4.31948 21.3719 3.75 19.8244 3.75 18.0681V11.9318C3.75 10.1755 4.31948 8.62801 5.39677 7.51357Z" fill="#303030"/>
<path fill-rule="evenodd" clip-rule="evenodd" d="M13.1934 13.1954C13.1638 13.2561 13.125 13.3821 13.125 13.6024V16.5092C13.125 16.7992 13.2276 16.8484 13.2351 16.852C13.2352 16.852 13.2353 16.8521 13.2354 16.8521C13.2649 16.8671 13.4532 16.934 13.8469 16.7252L16.5695 15.2816C16.7962 15.1452 16.8565 15.0434 16.8715 15.0074C16.8565 14.9714 16.7962 14.8696 16.5695 14.7332L13.8469 13.2896C13.4198 13.0631 13.2409 13.1356 13.2354 13.1384C13.2322 13.1401 13.2291 13.142 13.2244 13.147C13.2193 13.1523 13.2075 13.1662 13.1934 13.1954ZM16.876 15.0216C16.876 15.0216 16.8758 15.0209 16.8756 15.0194C16.876 15.0208 16.8761 15.0216 16.876 15.0216ZM16.8756 14.9954C16.8758 14.9939 16.876 14.9932 16.876 14.9932C16.8761 14.9932 16.876 14.994 16.8756 14.9954ZM12.4612 11.6199C13.1683 11.2593 13.9762 11.4288 14.6454 11.7836L17.3864 13.237C17.3977 13.243 17.4088 13.2492 17.4198 13.2557C18.049 13.6264 18.5795 14.2216 18.5795 15.0074C18.5795 15.7932 18.049 16.3883 17.4198 16.7591C17.4088 16.7655 17.3977 16.7718 17.3864 16.7777L14.6454 18.2311C13.9428 18.6037 13.1443 18.719 12.4612 18.3707C11.7522 18.0092 11.4204 17.2794 11.4204 16.5092V13.6024C11.4204 12.7917 11.7134 12.0011 12.4612 11.6199Z" fill="#303030"/>
</g>
<defs>
<clipPath id="clip0_745_2135">
<rect width="30" height="30" fill="white"/>
</clipPath>
</defs>
</svg>
