<?xml version="1.0" encoding="UTF-8"?><svg id="Layer_1" xmlns="http://www.w3.org/2000/svg" viewBox="0 0 608 82"><defs><style>.cls-1{fill:#08f;}.cls-2{fill:#ffe800;}.cls-3{fill:#303030;}</style></defs><rect class="cls-1" x="464.69" y="9.98" width="61.84" height="61.84"/><rect class="cls-2" x="536.14" y="9.98" width="61.84" height="61.84"/><g><path class="cls-3" d="M56.11,55.5c0,9.7-7.13,15.77-19.1,15.77H10.02V13.65h26.53c11.52,0,18.5,5.91,18.5,15.31,0,5.76-2.73,10.31-7.43,12.89,5.46,2.58,8.49,7.28,8.49,13.65ZM21.24,23.2v13.95h13.49c5.91,0,8.95-2.27,8.95-6.97s-3.03-6.97-8.95-6.97h-13.49Zm23.35,30.93c0-5.16-3.18-7.73-9.7-7.73h-13.65v15.31h13.65c6.52,0,9.7-2.43,9.7-7.58Z"/><path class="cls-3" d="M109.78,57.62h-8.79v13.65h-10.16v-13.65h-28.35v-8.94L87.79,13.65h13.19V48.22h8.79v9.4Zm-18.95-9.4V24.26l-17.44,23.95h17.44Z"/><path class="cls-3" d="M118.57,48.22V13.65h11.67V47.91c0,8.64,5,13.8,13.49,13.8s13.49-5.15,13.49-13.8V13.65h11.67V48.22c0,14.55-9.55,23.8-25.17,23.8s-25.17-9.25-25.17-23.8Z"/><path class="cls-3" d="M223.79,61.71v9.55c-1.67,.15-2.88,.15-4.85,.15-6.22,0-9.85-3.18-9.85-9.4v-4.85c0-2.58-1.52-3.94-3.94-3.94h-11.37v18.04h-10.92V10.62h10.92V43.67h8.04l10.16-17.89h11.52l-11.37,19.1c5.15,1.21,7.58,4.85,7.58,10.76v3.79c0,1.36,.91,2.27,2.27,2.27h1.82Z"/><path class="cls-3" d="M263.06,25.48l-.3,10.31c-2.27-.3-4.55-.45-6.67-.45-6.97,0-11.83,3.79-11.83,10.92v25.02h-10.92V25.78h9.7l.61,7.13c3.34-4.85,8.79-7.73,15.46-7.73,1.21,0,2.58,.15,3.94,.3Z"/><path class="cls-3" d="M309.75,61.86v9.4c-.76,.15-1.97,.3-3.94,.3-5.61,0-8.49-2.12-9.25-6.97-3.34,4.55-9.25,7.43-15.92,7.43-8.79,0-14.86-5.31-14.86-13.34,0-11.52,10.92-13.8,19.56-14.86,5.91-.76,9.7-1.52,9.7-4.55,0-3.18-3.34-5.31-8.79-5.31-4.85,0-9.4,1.97-12.89,5.61l-6.52-6.82c5.31-5,11.98-7.73,20.01-7.73,11.52,0,18.34,5.76,18.34,15.16v18.95c0,1.82,.91,2.73,2.73,2.73h1.82Zm-15.01-8.19v-4.7c-1.82,1.06-4.4,1.52-8.19,2.12-5.15,.91-10.16,1.67-10.16,6.67,0,3.49,2.43,5.61,6.52,5.61,6.52,0,11.83-4.4,11.83-9.7Z"/><path class="cls-3" d="M319.46,10.01h11.83v9.7h-11.83V10.01Zm.45,15.77h10.92v45.48h-10.92V25.78Z"/><path class="cls-3" d="M387.07,42.46v28.81h-10.92v-26.23c0-6.97-3.34-10.92-8.95-10.92-6.37,0-11.52,4.55-11.52,11.07v26.08h-10.92V25.78h9.7l.61,6.67c3.34-4.55,8.95-7.43,15.46-7.43,9.7,0,16.53,6.97,16.53,17.44Z"/><path class="cls-3" d="M419.82,62.92c5.91,0,10.16-2.27,12.89-5.46l6.82,6.52c-4.25,4.7-10.61,8.04-19.71,8.04-15.62,0-23.65-10.01-23.65-23.5s9.1-23.5,22.89-23.5,22.29,9.25,22.29,23.5c0,1.06,0,1.82-.3,3.49h-33.96c1.06,6.82,5.61,10.92,12.74,10.92Zm-12.58-18.95h23.04c-1.21-6.52-5.31-10.16-11.22-10.16-6.37,0-10.61,3.79-11.83,10.16Z"/></g></svg>