<svg width="24" height="24" viewBox="0 0 24 24" fill="none" xmlns="http://www.w3.org/2000/svg">
<path d="M20 12C20 16.4183 16.4183 20 12 20V22C17.5228 22 22 17.5228 22 12H20ZM12 20C7.58172 20 4 16.4183 4 12H2C2 17.5228 6.47715 22 12 22V20ZM4 12C4 7.58172 7.58172 4 12 4V2C6.47715 2 2 6.47715 2 12H4ZM12 4C16.4183 4 20 7.58172 20 12H22C22 6.47715 17.5228 2 12 2V4Z" fill="#303030"/>
<path d="M9.70711 12.2929C9.31658 11.9024 8.68342 11.9024 8.29289 12.2929C7.90237 12.6834 7.90237 13.3166 8.29289 13.7071L9.70711 12.2929ZM12 16L11.2929 16.7071C11.4804 16.8946 11.7348 17 12 17C12.2652 17 12.5196 16.8946 12.7071 16.7071L12 16ZM15.7071 13.7071C16.0976 13.3166 16.0976 12.6834 15.7071 12.2929C15.3166 11.9024 14.6834 11.9024 14.2929 12.2929L15.7071 13.7071ZM13 8C13 7.44772 12.5523 7 12 7C11.4477 7 11 7.44772 11 8L13 8ZM8.29289 13.7071L11.2929 16.7071L12.7071 15.2929L9.70711 12.2929L8.29289 13.7071ZM12.7071 16.7071L15.7071 13.7071L14.2929 12.2929L11.2929 15.2929L12.7071 16.7071ZM11 8L11 16H13L13 8L11 8Z" fill="#303030"/>
</svg>
