<svg width="24" height="24" viewBox="0 0 24 24" fill="none" xmlns="http://www.w3.org/2000/svg">
<path fill-rule="evenodd" clip-rule="evenodd" d="M15.3187 5.00015C14.8618 4.99996 14.4106 5.10121 13.9977 5.29657C13.5847 5.49194 13.2203 5.77655 12.9307 6.12987C12.6411 6.48319 12.4335 6.8964 12.323 7.33968C12.2125 7.78296 12.2018 8.24524 12.2917 8.69315C12.3226 8.84835 12.3163 9.00868 12.2732 9.16095C12.2301 9.31322 12.1515 9.45309 12.0438 9.56907C11.9361 9.68504 11.8025 9.7738 11.6538 9.82805C11.5051 9.88231 11.3457 9.90051 11.1887 9.88115C9.0384 9.61701 7.01139 8.73311 5.35467 7.33715C5.38566 7.93915 5.59466 8.57915 6.04766 9.24915L6.72666 10.2532L5.61167 10.7282L5.39666 10.8202C5.55666 11.0032 5.74866 11.1902 5.96366 11.3752C6.25108 11.6212 6.55514 11.847 6.87366 12.0512L6.88466 12.0582H6.88566L8.43366 12.9972L6.81366 13.8072C6.73366 13.8472 6.65366 13.8832 6.57366 13.9152C6.922 14.2046 7.30575 14.4486 7.71566 14.6412L9.10566 15.2982L7.94166 16.3022C7.30666 16.8502 6.66766 17.2592 5.83866 17.4752C7.1101 18.1524 8.52911 18.5052 9.96966 18.5022C14.7757 18.5022 18.6457 14.6672 18.6457 9.96815V9.44815L19.0707 9.14915C19.7347 8.68315 20.2037 8.05315 20.5397 7.33215H18.3797L18.1077 6.76215C17.8572 6.23482 17.4623 5.78935 16.9688 5.47747C16.4753 5.16558 15.9035 5.00007 15.3197 5.00015H15.3187ZM4.03866 12.3002C3.9443 12.4082 3.87429 12.5353 3.8334 12.6729C3.79251 12.8104 3.78168 12.9551 3.80166 13.0972C3.91466 13.8982 4.39366 14.5882 4.92366 15.1152C5.06766 15.2582 5.22166 15.3952 5.38366 15.5262L5.30867 15.5462C4.82767 15.6662 4.17866 15.6912 3.09766 15.5862C2.89352 15.5661 2.68816 15.6094 2.50942 15.71C2.33068 15.8106 2.1872 15.9638 2.09845 16.1487C2.0097 16.3336 1.97996 16.5414 2.01327 16.7438C2.04658 16.9462 2.14133 17.1334 2.28466 17.2802C3.28544 18.3031 4.48096 19.1152 5.80069 19.6686C7.12042 20.2219 8.53761 20.5054 9.96866 20.5022C15.6817 20.5022 20.3677 16.0662 20.6327 10.4682C21.9227 9.38515 22.5677 7.91815 22.9157 6.58515C22.9544 6.43721 22.9586 6.28235 22.9281 6.13251C22.8975 5.98266 22.833 5.84181 22.7396 5.7208C22.6461 5.59978 22.5261 5.50182 22.3888 5.43444C22.2515 5.36707 22.1006 5.33207 21.9477 5.33215H19.5947C19.0191 4.43848 18.178 3.74759 17.1896 3.35659C16.2011 2.96558 15.115 2.8941 14.0838 3.1522C13.0526 3.41029 12.1283 3.98499 11.4405 4.79553C10.7528 5.60607 10.3364 6.61172 10.2497 7.67115C8.40632 7.1913 6.757 6.15196 5.52866 4.69615C5.41988 4.56754 5.28037 4.46848 5.12308 4.40819C4.96579 4.34789 4.79582 4.3283 4.62894 4.35124C4.46206 4.37419 4.30367 4.43891 4.16849 4.53942C4.03331 4.63993 3.9257 4.77295 3.85566 4.92615C3.24966 6.24815 3.13366 7.77215 3.80966 9.32215L3.57566 9.42215C3.35174 9.51757 3.1703 9.69138 3.06537 9.91101C2.96043 10.1306 2.93921 10.381 3.00566 10.6152C3.19166 11.2672 3.60966 11.8432 4.03766 12.3002H4.03866Z" fill="#303030"/>
</svg>
