<svg width="29" height="29" viewBox="0 0 29 29" fill="none" xmlns="http://www.w3.org/2000/svg">
<path d="M13.8958 26.2813C7.06874 26.2813 1.51041 20.7229 1.51041 13.8958C1.51041 7.06875 7.06874 1.51042 13.8958 1.51042C20.7229 1.51042 26.2812 7.06875 26.2812 13.8958C26.2812 20.7229 20.7229 26.2813 13.8958 26.2813ZM13.8958 3.32292C8.05957 3.32292 3.32291 8.07167 3.32291 13.8958C3.32291 19.72 8.05957 24.4688 13.8958 24.4688C19.7321 24.4688 24.4687 19.72 24.4687 13.8958C24.4687 8.07167 19.7321 3.32292 13.8958 3.32292Z" fill="white"/>
<path d="M26.5833 27.4896C26.3537 27.4896 26.1242 27.405 25.9429 27.2237L23.5262 24.8071C23.1758 24.4567 23.1758 23.8767 23.5262 23.5262C23.8767 23.1758 24.4567 23.1758 24.8071 23.5262L27.2237 25.9429C27.5742 26.2933 27.5742 26.8733 27.2237 27.2237C27.0425 27.405 26.8129 27.4896 26.5833 27.4896Z" fill="white"/>
</svg>
