<?xml version="1.0" encoding="utf-8"?>
<svg xmlns="http://www.w3.org/2000/svg" xmlns:xlink="http://www.w3.org/1999/xlink" x="0px" y="0px"
	 viewBox="0 0 329 64" style="enable-background:new 0 0 329 64;" xml:space="preserve">
<style type="text/css">
	.st0{fill:#303030;}
</style>
<g>
	<rect x="240.78" y="16.12" class="st0" width="29.33" height="29.33"/>
	<rect x="274.67" y="16.12" class="st0" width="29.33" height="29.33"/>
	<path class="st0" d="M41.54,37.06c0-2.44-1.51-3.67-4.6-3.67h-6.47v7.26h6.47C40.03,40.65,41.54,39.5,41.54,37.06 M30.46,22.39V29
		h6.4c2.8,0,4.24-1.08,4.24-3.31s-1.44-3.31-4.24-3.31H30.46z M47,37.7c0,4.6-3.38,7.48-9.06,7.48h-12.8V17.86h12.58
		c5.46,0,8.77,2.8,8.77,7.26c0,2.73-1.3,4.89-3.52,6.11C45.57,32.45,47,34.68,47,37.7"/>
	<path class="st0" d="M63.47,34.25V22.89L55.2,34.25H63.47z M72.46,38.71h-4.17v6.47h-4.82v-6.47H50.02v-4.24l12.01-16.61h6.26v16.4
		h4.17V38.71z"/>
	<path class="st0" d="M76.63,34.25V17.86h5.54v16.25c0,4.1,2.37,6.54,6.4,6.54c4.1,0,6.4-2.44,6.4-6.54V17.86h5.54v16.39
		c0,6.9-4.53,11.29-11.94,11.29C81.23,45.54,76.63,41.15,76.63,34.25"/>
	<path class="st0" d="M126.53,40.65v4.53c-0.79,0.07-1.37,0.07-2.3,0.07c-2.95,0-4.68-1.51-4.68-4.46v-2.3
		c0-1.22-0.72-1.87-1.87-1.87h-5.39v8.56h-5.18V16.42h5.18v15.68h3.81l4.82-8.49h5.47l-5.39,9.06c2.44,0.58,3.6,2.3,3.6,5.11v1.8
		c0,0.65,0.43,1.08,1.08,1.08H126.53z"/>
	<path class="st0" d="M145.15,23.47l-0.14,4.89c-1.08-0.14-2.16-0.22-3.16-0.22c-3.31,0-5.61,1.8-5.61,5.18v11.86h-5.18V23.61h4.6
		l0.29,3.38c1.58-2.3,4.17-3.67,7.34-3.67C143.86,23.32,144.51,23.39,145.15,23.47"/>
	<path class="st0" d="M160.18,36.84v-2.23c-0.86,0.5-2.09,0.72-3.88,1.01c-2.44,0.43-4.82,0.79-4.82,3.16
		c0,1.65,1.15,2.66,3.09,2.66C157.67,41.44,160.18,39.36,160.18,36.84 M167.3,40.72v4.46c-0.36,0.07-0.94,0.14-1.87,0.14
		c-2.66,0-4.03-1.01-4.39-3.31c-1.58,2.16-4.39,3.52-7.55,3.52c-4.17,0-7.05-2.52-7.05-6.33c0-5.46,5.18-6.54,9.28-7.05
		c2.8-0.36,4.6-0.72,4.6-2.16c0-1.51-1.58-2.52-4.17-2.52c-2.3,0-4.46,0.93-6.11,2.66l-3.09-3.24c2.52-2.37,5.68-3.67,9.49-3.67
		c5.47,0,8.7,2.73,8.7,7.19v8.99c0,0.86,0.43,1.29,1.3,1.29H167.3z"/>
	<path class="st0" d="M172.12,23.61h5.18v21.57h-5.18V23.61z M171.9,16.13h5.61v4.6h-5.61V16.13z"/>
	<path class="st0" d="M203.97,31.52v13.66h-5.18V32.74c0-3.31-1.58-5.18-4.24-5.18c-3.02,0-5.46,2.16-5.46,5.25v12.37h-5.18V23.61
		h4.6l0.29,3.16c1.58-2.16,4.24-3.52,7.33-3.52C200.74,23.25,203.97,26.56,203.97,31.52"/>
	<path class="st0" d="M213.53,32.24h10.93c-0.58-3.09-2.52-4.82-5.32-4.82C216.12,27.42,214.11,29.22,213.53,32.24 M219.5,41.23
		c2.8,0,4.82-1.08,6.11-2.59l3.24,3.09c-2.01,2.23-5.03,3.81-9.35,3.81c-7.41,0-11.22-4.75-11.22-11.15
		c0-6.62,4.32-11.15,10.86-11.15c6.4,0,10.57,4.39,10.57,11.15c0,0.5,0,0.86-0.14,1.65h-16.11
		C213.97,39.29,216.12,41.23,219.5,41.23"/>
</g>
</svg>
